<svg xmlns="http://www.w3.org/2000/svg" width="235" height="222.069" viewBox="0 0 235 222.069">
  <g id="Groupe_7" data-name="Groupe 7" transform="translate(-343 -235)">
    <g id="Groupe_2" data-name="Groupe 2" transform="translate(343 235)">
      <path id="Tracé_1" data-name="Tracé 1" d="M840.976,330.106a1.5,1.5,0,1,1-.038,2.992c-7.622,1.125-10.345,6.149-10.345,17.741v39.776c0,10.9,2.457,58.512-47.608,58.512-14.817,0-33.239-5.992-40.019-23.522-6.336-16.38,4-28.538,15.189-28.538,13.364,0,19.233,7.434,19.233,15.981,0,13.069-10.5,11.5-10.5,22.292,0,7.316,7.069,10.5,12.087,10.495,26.224-.033,23.971-55.221,23.971-55.221V350.838c0-11.681-1.925-16.66-10.232-17.725-1.138-.18-1.649-.6-1.649-1.519,0-1.055.6-1.488,1.65-1.488Z" transform="translate(-715.118 -328.954)"/>
      <path id="Tracé_2" data-name="Tracé 2" d="M991.634,388.968c0,33.325-24.719,60.508-58.365,60.662-33.817-.154-58.365-27.336-58.365-60.662s24.548-60.508,58.365-60.662C966.914,328.46,991.634,355.642,991.634,388.968Zm-89.015,0c0,38.9,15.372,57.533,30.65,57.686,15.278-.154,30.651-18.228,30.651-57.686s-15.372-57.533-30.651-57.686C917.991,331.434,902.619,350.07,902.619,388.968Z" transform="translate(-763.811 -328.306)"/>
      <g id="Groupe_1" data-name="Groupe 1" transform="translate(0 101.883)">
        <path id="Tracé_3" data-name="Tracé 3" d="M755.768,488.249c23.69,0,42.341,12.323,42.341,38.243,0,16.945-8.27,29.245-21.42,35.733L792,588.088c2.906,4.593,8.644,15.223,15.164,16.186a1.5,1.5,0,1,1,.038,2.992H787.141c-15.358,0-18.736-5.533-23.189-13.519L748.37,567.468h-8.312v19.06c0,11.592,2.722,16.616,10.344,17.741a1.5,1.5,0,1,1,.038,2.992H702.184c-1.051,0-1.65-.433-1.65-1.489,0-.914.511-1.338,1.648-1.519,8.308-1.065,10.233-6.044,10.233-17.725V508.973c0-11.681-1.925-16.66-10.233-17.725-1.137-.18-1.648-.6-1.648-1.519,0-1.055.6-1.488,1.65-1.488Zm-15.709,76.244c18.208,0,30.407-17.838,30.407-38s-11.2-35.276-30.407-35.276Z" transform="translate(-700.534 -488.241)"/>
        <path id="Tracé_4" data-name="Tracé 4" d="M899.689,488.247a1.5,1.5,0,1,1-.038,2.992c-7.622,1.126-10.345,6.149-10.345,17.741v77.555c0,11.592,2.722,16.616,10.345,17.741a1.5,1.5,0,1,1,.038,2.992H851.433c-1.051,0-1.65-.433-1.65-1.488,0-.914.511-1.339,1.648-1.518,8.307-1.065,10.232-6.044,10.232-17.725V508.98c0-11.681-1.925-16.66-10.232-17.725-1.138-.181-1.648-.6-1.648-1.519,0-1.056.6-1.488,1.65-1.488Z" transform="translate(-754.279 -488.243)"/>
      </g>
      <path id="Tracé_5" data-name="Tracé 5" d="M998.034,488.363a1.491,1.491,0,0,1,2.891.511v25.747a1.488,1.488,0,0,1-1.369,1.494,1.658,1.658,0,0,1-1.591-1.257c-5.654-20.809-17.862-24.936-28.774-25.456-12.2,0-19.621,9.083-19.621,20.448,0,28.257,63.273,21.137,63.273,62.756,0,18.89-18.279,35.169-50.684,35.169-29.273,0-48.288-11.329-48.288-33.455,0-10.8,5.647-21.229,18.038-21.229,10.618,0,16.853,6.483,16.853,14.457,0,10.812-10.654,10.741-10.4,21.8.153,6.6,6.45,15.418,23.5,15.418,17.2,0,27.336-12.655,27.336-21.562,0-27.8-62.2-21.6-62.2-64.138,0-14.743,9.485-32.638,42.2-32.638C986.207,486.425,995.1,493.758,998.034,488.363Z" transform="translate(-777.843 -385.704)"/>
    </g>
  </g>
</svg>
