<svg xmlns="http://www.w3.org/2000/svg" width="74.529" height="70.428" viewBox="0 0 74.529 70.428">
  <g id="Groupe_6" data-name="Groupe 6" transform="translate(-700.534 -328.306)">
    <path id="Tracé_1" data-name="Tracé 1" d="M772.665,330.106a.473.473,0,1,1-.012.947c-2.412.356-3.274,1.946-3.274,5.615v12.589c0,3.451.778,18.519-15.067,18.519-4.689,0-10.52-1.9-12.666-7.444-2.005-5.184,1.267-9.032,4.807-9.032,4.229,0,6.087,2.353,6.087,5.058,0,4.136-3.322,3.639-3.322,7.055,0,2.315,2.237,3.324,3.825,3.322,8.3-.01,7.586-17.477,7.586-17.477V336.667c0-3.7-.609-5.273-3.238-5.61-.36-.057-.522-.191-.522-.481,0-.334.19-.471.522-.471Z" transform="translate(-32.298 -1.435)" fill="#eef1ef"/>
    <path id="Tracé_2" data-name="Tracé 2" d="M911.848,347.5c0,10.547-7.823,19.15-18.472,19.2-10.7-.049-18.472-8.652-18.472-19.2s7.769-19.15,18.472-19.2C904.024,328.355,911.848,336.958,911.848,347.5Zm-28.172,0c0,12.31,4.865,18.208,9.7,18.257,4.835-.049,9.7-5.769,9.7-18.257s-4.865-18.209-9.7-18.257C888.541,329.3,883.675,335.194,883.675,347.5Z" transform="translate(-139.056)" fill="#eef1ef"/>
    <g id="Groupe_1" data-name="Groupe 1" transform="translate(700.534 360.696)">
      <path id="Tracé_3" data-name="Tracé 3" d="M718.015,488.243c7.5,0,13.4,3.9,13.4,12.1a11.968,11.968,0,0,1-6.779,11.309l4.846,8.186c.92,1.454,2.736,4.818,4.8,5.123a.473.473,0,1,1,.012.947h-6.35c-4.861,0-5.93-1.751-7.339-4.279l-4.931-8.317h-2.631v6.032c0,3.669.861,5.259,3.274,5.615a.474.474,0,1,1,.012.947H701.056c-.333,0-.522-.137-.522-.471,0-.289.162-.424.522-.481,2.629-.337,3.239-1.913,3.239-5.61V494.8c0-3.7-.609-5.273-3.239-5.61-.36-.057-.522-.191-.522-.481,0-.334.19-.471.522-.471Zm-4.972,24.13c5.763,0,9.624-5.646,9.624-12.027s-3.544-11.164-9.624-11.164Z" transform="translate(-700.534 -488.241)" fill="#eef1ef"/>
      <path id="Tracé_4" data-name="Tracé 4" d="M865.578,488.247a.473.473,0,1,1-.012.947c-2.412.356-3.274,1.946-3.274,5.615v24.545c0,3.669.862,5.259,3.274,5.615a.473.473,0,1,1,.012.947H850.305c-.333,0-.522-.137-.522-.471,0-.289.162-.424.522-.481,2.629-.337,3.238-1.913,3.238-5.61V494.809c0-3.7-.609-5.273-3.238-5.61-.36-.057-.522-.191-.522-.481,0-.334.189-.471.522-.471Z" transform="translate(-819.557 -488.246)" fill="#eef1ef"/>
    </g>
    <path id="Tracé_5" data-name="Tracé 5" d="M940.508,487.038a.472.472,0,0,1,.915.162v8.149a.471.471,0,0,1-.433.473.525.525,0,0,1-.5-.4c-1.789-6.586-5.653-7.892-9.107-8.057-3.86,0-6.21,2.875-6.21,6.472,0,8.943,20.025,6.69,20.025,19.861,0,5.978-5.785,11.131-16.041,11.131-9.265,0-15.283-3.585-15.283-10.588,0-3.419,1.787-6.719,5.709-6.719,3.361,0,5.334,2.052,5.334,4.575,0,3.422-3.372,3.4-3.292,6.9.048,2.09,2.041,4.88,7.436,4.88,5.444,0,8.652-4.005,8.652-6.824,0-8.8-19.685-6.836-19.685-20.3,0-4.666,3-10.33,13.355-10.33C936.765,486.425,939.579,488.746,940.508,487.038Z" transform="translate(-170.132 -126.096)" fill="#eef1ef"/>
  </g>
</svg>
